<?xml version="1.0" encoding="utf-8"?>
<!-- Generator: Adobe Illustrator 28.2.0, SVG Export Plug-In . SVG Version: 6.00 Build 0)  -->
<svg version="1.1" id="Warstwa_1" xmlns="http://www.w3.org/2000/svg" xmlns:xlink="http://www.w3.org/1999/xlink" x="0px" y="0px"
	 viewBox="0 0 1050 180" style="enable-background:new 0 0 1050 180;" xml:space="preserve">
<style type="text/css">
	.st0{fill:#FFFFFF;}
</style>
<g>
	<g>
		<path class="st0" d="M634.06,111.15h-5.43v-7.3c-4.6,5.6-10.29,8.4-17.05,8.4c-6.14,0-11.32-2.21-15.53-6.64
			c-4.16-4.35-6.24-9.62-6.24-15.82c0-6.12,2.13-11.35,6.38-15.7c4.25-4.35,9.44-6.52,15.55-6.52c7,0,12.63,2.97,16.9,8.91v-7.81
			h5.43V111.15z M628.98,90.13c0-4.86-1.59-8.95-4.77-12.28c-3.18-3.33-7.19-4.99-12.02-4.99c-6.5,0-11.34,2.85-14.54,8.54
			c-1.53,2.7-2.3,5.56-2.3,8.57s0.77,5.88,2.3,8.59c1.53,2.72,3.59,4.83,6.18,6.35c2.58,1.52,5.36,2.28,8.32,2.28
			c2.99,0,5.82-0.75,8.5-2.26s4.73-3.55,6.18-6.12C628.26,96.25,628.98,93.35,628.98,90.13z"/>
		<path class="st0" d="M669.78,69l-2.85,4.65c-1.14-0.49-2.1-0.74-2.88-0.74c-4.36,0-7.4,3.07-9.11,9.21
			c-0.67,2.42-1.01,7.31-1.01,14.67v14.36h-5.62v-42.5h5.62v6.25c3.3-4.89,6.97-7.34,11.03-7.34
			C666.45,67.55,668.06,68.04,669.78,69z"/>
		<path class="st0" d="M719.68,102.63c-4.27,6.41-10.9,9.61-19.88,9.61c-6.48,0-11.97-2.03-16.45-6.09
			c-4.61-4.19-6.91-9.49-6.91-15.9c0-4.14,1.04-7.97,3.11-11.48s4.92-6.26,8.54-8.24c3.62-1.98,7.67-2.97,12.15-2.97
			c5.78,0,10.72,1.55,14.8,4.65c1.82,1.38,3.37,3.14,4.65,5.27l-4.33,2.7c-3.75-4.95-8.86-7.42-15.34-7.42
			c-5.02,0-9.26,1.58-12.72,4.75c-3.54,3.27-5.31,7.39-5.31,12.35c0,3.12,0.79,6.04,2.38,8.75c1.59,2.72,3.75,4.83,6.48,6.33
			c2.73,1.51,5.8,2.26,9.21,2.26c6.24,0,11.34-2.47,15.3-7.42L719.68,102.63z"/>
		<path class="st0" d="M771.26,111.15h-5.51V90.89c0-4.89-0.19-8.16-0.58-9.79c-1.35-5.65-4.91-8.47-10.67-8.47
			c-3.3,0-6.25,1.09-8.86,3.26c-2.61,2.17-4.33,4.88-5.16,8.14c-0.52,2.03-0.78,5.88-0.78,11.55v15.57h-5.51V52.24h5.51v24.02
			c4.4-5.81,9.7-8.71,15.92-8.71c3.09,0,5.88,0.79,8.37,2.36c2.48,1.58,4.32,3.74,5.5,6.5c1.18,2.76,1.78,7.04,1.78,12.85V111.15z"
			/>
		<path class="st0" d="M793.38,55.66c0,1.25-0.44,2.3-1.32,3.17c-0.88,0.87-1.95,1.3-3.19,1.3c-1.22,0-2.27-0.44-3.15-1.32
			c-0.88-0.88-1.32-1.93-1.32-3.15c0-1.24,0.43-2.31,1.3-3.19c0.87-0.88,1.92-1.32,3.17-1.32c1.24,0,2.31,0.44,3.19,1.32
			C792.94,53.35,793.38,54.41,793.38,55.66z M791.7,111.15h-5.55v-42.5h5.55V111.15z"/>
		<path class="st0" d="M825.98,73.37h-8.67v37.77h-5.55V73.37h-7.46v-4.73h7.46V52.87h5.55v15.78h8.67V73.37z"/>
		<path class="st0" d="M879.9,90.33h-38.16c0.1,4.75,1.59,8.72,4.45,11.89c3.02,3.33,6.87,4.99,11.55,4.99
			c4.53,0,8.36-1.37,11.51-4.12c1.43-1.25,2.98-3.25,4.64-6.03l4.61,2.42c-2.87,5.6-6.84,9.38-11.91,11.33
			c-2.47,0.96-5.27,1.45-8.4,1.45c-6.38,0-11.66-2.11-15.84-6.33s-6.27-9.52-6.27-15.9c0-5.39,1.65-10.2,4.96-14.41
			c4.19-5.36,9.8-8.05,16.84-8.05c7.24,0,13.02,2.75,17.34,8.24C878.28,79.7,879.85,84.55,879.9,90.33z M873.92,85.56
			c-1.35-5.36-4.26-9.07-8.71-11.14c-2.29-1.06-4.7-1.59-7.23-1.59c-4.17,0-7.75,1.33-10.74,4c-2.19,1.94-3.84,4.85-4.96,8.74
			H873.92z"/>
		<path class="st0" d="M928.62,111.15h-7.73l-21.29-19.1v19.1h-5.55V52.24h5.55v33.52l19.62-17.11h8.04l-23.29,20.27L928.62,111.15z
			"/>
		<path class="st0" d="M979.5,102.63c-4.27,6.41-10.9,9.61-19.88,9.61c-6.48,0-11.97-2.03-16.45-6.09
			c-4.61-4.19-6.91-9.49-6.91-15.9c0-4.14,1.04-7.97,3.11-11.48s4.92-6.26,8.54-8.24c3.62-1.98,7.67-2.97,12.15-2.97
			c5.78,0,10.72,1.55,14.8,4.65c1.82,1.38,3.37,3.14,4.65,5.27l-4.33,2.7c-3.75-4.95-8.86-7.42-15.33-7.42
			c-5.02,0-9.26,1.58-12.72,4.75c-3.54,3.27-5.31,7.39-5.31,12.35c0,3.12,0.79,6.04,2.38,8.75c1.59,2.72,3.75,4.83,6.48,6.33
			c2.73,1.51,5.8,2.26,9.21,2.26c6.24,0,11.34-2.47,15.3-7.42L979.5,102.63z"/>
		<path class="st0" d="M1000.41,55.66c0,1.25-0.44,2.3-1.32,3.17c-0.88,0.87-1.95,1.3-3.19,1.3c-1.22,0-2.27-0.44-3.15-1.32
			c-0.88-0.88-1.32-1.93-1.32-3.15c0-1.24,0.43-2.31,1.3-3.19c0.87-0.88,1.92-1.32,3.17-1.32c1.24,0,2.31,0.44,3.19,1.32
			C999.97,53.35,1000.41,54.41,1000.41,55.66z M998.73,111.15h-5.55v-42.5h5.55V111.15z"/>
	</g>
	<g>
		<g>
			<path class="st0" d="M91.3,53.76c4.76,2.51,8.43,6.08,11.03,10.72c2.6,4.64,3.9,10.02,3.9,16.15s-1.3,11.51-3.9,16.15
				c-2.6,4.64-6.27,8.21-11.03,10.72c-4.76,2.51-10.29,3.76-16.59,3.76H49.59V50h25.12C81.01,50,86.54,51.26,91.3,53.76z
				 M87.14,93.85c3.15-3.27,4.73-7.67,4.73-13.21c0-3.68-0.71-6.87-2.14-9.58c-1.43-2.71-3.44-4.81-6.04-6.3
				c-2.6-1.49-5.59-2.23-8.97-2.23H63.94v36.23h10.77C79.85,98.75,83.99,97.11,87.14,93.85z"/>
			<path class="st0" d="M118.73,109.38c-3.59-1.89-6.35-4.54-8.27-7.92c-1.93-3.38-2.89-7.32-2.89-11.81
				c0-4.49,0.96-8.43,2.89-11.81c1.93-3.38,4.68-6.02,8.27-7.92c3.59-1.9,7.78-2.84,12.56-2.84c4.78,0,8.99,0.95,12.61,2.84
				c3.62,1.9,6.39,4.54,8.32,7.92c1.93,3.38,2.89,7.32,2.89,11.81c0,4.49-0.96,8.43-2.89,11.81c-1.93,3.38-4.7,6.03-8.32,7.92
				c-3.62,1.9-7.82,2.84-12.61,2.84C126.5,112.22,122.32,111.28,118.73,109.38z M138.64,97.52c1.87-2.04,2.8-4.67,2.8-7.88
				c0-3.21-0.93-5.83-2.8-7.88c-1.87-2.04-4.32-3.06-7.35-3.06c-2.98,0-5.4,1.02-7.27,3.06c-1.87,2.04-2.8,4.67-2.8,7.88
				c0,3.21,0.93,5.83,2.8,7.88c1.87,2.04,4.29,3.06,7.27,3.06C134.32,100.59,136.77,99.56,138.64,97.52z"/>
			<g>
				<polygon class="st0" points="227.89,67.27 227.89,111.26 214.3,111.26 214.3,91.27 199.1,111.26 185.5,111.26 185.5,91.27 
					170.3,111.26 156.7,111.26 156.7,67.27 170.3,67.27 170.3,87.27 185.5,67.27 199.1,67.27 199.1,87.27 214.3,67.27 				"/>
			</g>
			<path class="st0" d="M278.09,68.04v43.23h-11.91l-0.88-5.16c-3.68,4.03-8.46,6.04-14.36,6.04c-4.03,0-7.6-0.95-10.72-2.84
				c-3.12-1.9-5.56-4.55-7.31-7.96c-1.75-3.41-2.63-7.31-2.63-11.68s0.88-8.27,2.63-11.68c1.75-3.41,4.19-6.07,7.31-7.96
				c3.12-1.89,6.7-2.84,10.72-2.84c2.92,0,5.6,0.51,8.05,1.53c2.45,1.02,4.55,2.49,6.3,4.42l0.88-5.08H278.09z M261.63,97.57
				c1.93-2.01,2.89-4.65,2.89-7.92c0-3.27-0.96-5.91-2.89-7.92c-1.93-2.01-4.41-3.02-7.44-3.02c-3.04,0-5.5,1.02-7.4,3.06
				c-1.9,2.04-2.85,4.67-2.85,7.88c0,3.21,0.95,5.83,2.85,7.88c1.9,2.04,4.36,3.06,7.4,3.06
				C257.22,100.59,259.71,99.59,261.63,97.57z"/>
			<path class="st0" d="M319.94,72.33c3.18,3.5,4.77,8.34,4.77,14.53v24.42h-13.74V87.64c0-2.8-0.7-4.99-2.1-6.56
				c-1.4-1.58-3.33-2.36-5.78-2.36c-2.69,0-4.84,0.91-6.48,2.71c-1.63,1.81-2.45,4.17-2.45,7.09v22.75h-13.74V68.04h11.91l0.88,5.08
				c1.69-1.92,3.72-3.41,6.08-4.46s4.97-1.58,7.84-1.58C312.49,67.08,316.76,68.83,319.94,72.33z"/>
			<path class="st0" d="M337.63,109.39c-3.59-1.89-6.35-4.54-8.27-7.92c-1.93-3.38-2.89-7.32-2.89-11.81
				c0-4.49,0.96-8.43,2.89-11.81c1.93-3.38,4.68-6.02,8.27-7.92c3.59-1.9,7.78-2.84,12.56-2.84c4.78,0,8.99,0.95,12.61,2.84
				c3.62,1.9,6.39,4.54,8.32,7.92c1.93,3.38,2.89,7.32,2.89,11.81c0,4.49-0.96,8.43-2.89,11.81c-1.93,3.38-4.7,6.03-8.32,7.92
				c-3.62,1.9-7.82,2.84-12.61,2.84C345.41,112.23,341.22,111.29,337.63,109.39z M357.54,97.53c1.87-2.04,2.8-4.67,2.8-7.88
				c0-3.21-0.93-5.83-2.8-7.88c-1.87-2.04-4.32-3.06-7.35-3.06c-2.98,0-5.4,1.02-7.27,3.06c-1.87,2.04-2.8,4.67-2.8,7.88
				c0,3.21,0.93,5.83,2.8,7.88c1.87,2.04,4.29,3.06,7.27,3.06C353.23,100.59,355.68,99.57,357.54,97.53z"/>
			<path class="st0" d="M428.12,68.04h14.53l-14.44,43.23h-13.04l-3.59-10.59l-4.99-13.91l-4.99,13.91L398,111.27h-13.13
				l-14.44-43.23h14.53l3.85,13.3l3.33,13.3l9.89-26.61h9.1l9.89,26.69l3.33-13.39L428.12,68.04z"/>
			<path class="st0" d="M439.7,106.63l5.25-9.45c2.1,1.28,4.54,2.28,7.31,2.98c2.77,0.7,5.53,1.05,8.27,1.05
				c3.79,0,5.69-1.02,5.69-3.06c0-1.05-0.52-1.84-1.58-2.36s-2.8-0.88-5.25-1.05c-5.49-0.29-9.85-1.66-13.09-4.11
				c-3.24-2.45-4.86-5.66-4.86-9.63c0-4.32,1.75-7.74,5.25-10.28c3.5-2.54,8.23-3.81,14.18-3.81c3.38,0,6.61,0.41,9.67,1.23
				c3.06,0.82,5.7,1.96,7.92,3.41l-5.34,9.19c-3.27-1.87-7.15-2.8-11.64-2.8c-4.44,0-6.65,1.05-6.65,3.15
				c0,0.88,0.45,1.55,1.36,2.01c0.9,0.47,2.44,0.82,4.6,1.05c6.19,0.47,10.9,1.87,14.14,4.2c3.24,2.33,4.86,5.6,4.86,9.8
				c0,4.43-1.78,7.92-5.34,10.46c-3.56,2.54-8.49,3.81-14.79,3.81C452.01,112.41,445.36,110.48,439.7,106.63z"/>
			<path class="st0" d="M492.13,109.48c-3.59-1.84-6.36-4.45-8.32-7.83c-1.96-3.38-2.93-7.35-2.93-11.9c0-4.49,0.99-8.44,2.98-11.86
				c1.98-3.41,4.76-6.07,8.32-7.96c3.56-1.9,7.67-2.84,12.34-2.84c3.21,0,6.27,0.57,9.19,1.71c2.92,1.14,5.52,2.82,7.79,5.03
				l-7.62,8.31c-2.45-2.28-5.34-3.41-8.67-3.41c-3.15,0-5.72,1.01-7.7,3.02c-1.98,2.01-2.98,4.65-2.98,7.92
				c0,3.27,0.98,5.91,2.93,7.92c1.96,2.01,4.54,3.02,7.75,3.02c3.56,0,6.59-1.25,9.1-3.76l7.79,8.23
				c-4.84,4.79-10.62,7.18-17.33,7.18C499.94,112.23,495.72,111.32,492.13,109.48z"/>
			<path class="st0" d="M556.22,68.04h14.88L544.14,130h-14.62l8.4-19.34l-16.81-42.62h14.79l4.99,13.65l4.73,14.09l5.08-14.09
				L556.22,68.04z"/>
		</g>
	</g>
</g>
</svg>
