<?xml version="1.0" encoding="utf-8"?>
<!-- Generator: Adobe Illustrator 28.2.0, SVG Export Plug-In . SVG Version: 6.00 Build 0)  -->
<svg version="1.1" id="Warstwa_1" xmlns="http://www.w3.org/2000/svg" xmlns:xlink="http://www.w3.org/1999/xlink" x="0px" y="0px"
	 viewBox="0 0 1240 440" style="enable-background:new 0 0 1240 440;" xml:space="preserve">
<g>
	<g>
		<path d="M727.69,338.98h-5.07v-6.82c-4.3,5.23-9.61,7.84-15.92,7.84c-5.73,0-10.56-2.07-14.5-6.2c-3.89-4.06-5.83-8.98-5.83-14.77
			c0-5.71,1.99-10.6,5.96-14.66c3.97-4.06,8.81-6.09,14.52-6.09c6.53,0,11.79,2.77,15.77,8.31v-7.29h5.07V338.98z M722.95,319.36
			c0-4.54-1.49-8.35-4.46-11.46c-2.97-3.11-6.71-4.66-11.22-4.66c-6.06,0-10.59,2.66-13.57,7.97c-1.43,2.52-2.15,5.19-2.15,8
			c0,2.81,0.71,5.49,2.15,8.02c1.43,2.54,3.35,4.51,5.77,5.93c2.41,1.42,5,2.13,7.77,2.13c2.79,0,5.43-0.7,7.93-2.11
			c2.5-1.41,4.42-3.31,5.77-5.71C722.28,325.07,722.95,322.37,722.95,319.36z"/>
		<path d="M766.64,299.63l-2.66,4.34c-1.07-0.46-1.96-0.69-2.69-0.69c-4.07,0-6.91,2.86-8.51,8.6c-0.63,2.26-0.95,6.82-0.95,13.7
			v13.41h-5.25V299.3h5.25v5.83c3.08-4.57,6.51-6.85,10.29-6.85C763.53,298.28,765.03,298.73,766.64,299.63z"/>
		<path d="M818.82,331.03c-3.99,5.98-10.17,8.97-18.56,8.97c-6.05,0-11.17-1.9-15.35-5.69c-4.3-3.91-6.45-8.86-6.45-14.84
			c0-3.87,0.97-7.44,2.9-10.72c1.93-3.28,4.59-5.85,7.97-7.69c3.38-1.85,7.16-2.77,11.34-2.77c5.39,0,10,1.45,13.82,4.34
			c1.7,1.29,3.15,2.93,4.34,4.92l-4.04,2.51c-3.5-4.62-8.27-6.93-14.32-6.93c-4.69,0-8.65,1.48-11.88,4.44
			c-3.3,3.06-4.96,6.9-4.96,11.53c0,2.91,0.74,5.63,2.22,8.17c1.48,2.54,3.5,4.51,6.05,5.91c2.55,1.41,5.41,2.11,8.6,2.11
			c5.83,0,10.59-2.31,14.28-6.93L818.82,331.03z"/>
		<path d="M872.57,338.98h-5.14v-18.91c0-4.57-0.18-7.61-0.54-9.14c-1.26-5.27-4.58-7.91-9.96-7.91c-3.08,0-5.83,1.02-8.27,3.04
			c-2.44,2.03-4.04,4.56-4.82,7.59c-0.49,1.89-0.73,5.49-0.73,10.78v14.54h-5.14v-54.99h5.14v22.43c4.1-5.42,9.06-8.13,14.86-8.13
			c2.89,0,5.49,0.74,7.81,2.21c2.32,1.47,4.03,3.49,5.14,6.07c1.1,2.58,1.66,6.58,1.66,12V338.98z"/>
		<path d="M898.82,287.18c0,1.16-0.41,2.15-1.23,2.96c-0.82,0.81-1.81,1.22-2.98,1.22c-1.14,0-2.12-0.41-2.94-1.23
			c-0.82-0.82-1.23-1.8-1.23-2.94c0-1.16,0.4-2.15,1.22-2.98c0.81-0.82,1.8-1.23,2.96-1.23c1.16,0,2.15,0.41,2.98,1.23
			C898.41,285.03,898.82,286.02,898.82,287.18z M897.25,338.98h-5.18V299.3h5.18V338.98z"/>
		<path d="M934.85,303.72h-8.1v35.26h-5.18v-35.26h-6.96v-4.41h6.96v-14.73h5.18v14.73h8.1V303.72z"/>
		<path d="M990.79,319.54h-35.63c0.1,4.44,1.48,8.14,4.15,11.1c2.82,3.1,6.41,4.66,10.78,4.66c4.22,0,7.81-1.28,10.74-3.85
			c1.34-1.16,2.78-3.04,4.34-5.63l4.3,2.26c-2.67,5.23-6.38,8.75-11.12,10.57c-2.31,0.9-4.92,1.35-7.84,1.35
			c-5.96,0-10.88-1.97-14.79-5.91c-3.9-3.94-5.85-8.89-5.85-14.84c0-5.03,1.54-9.52,4.63-13.45c3.91-5.01,9.15-7.51,15.72-7.51
			c6.76,0,12.16,2.57,16.19,7.69C989.28,309.62,990.74,314.15,990.79,319.54z M985.21,315.09c-1.26-5-3.98-8.47-8.13-10.4
			c-2.14-0.99-4.39-1.49-6.75-1.49c-3.89,0-7.23,1.24-10.03,3.73c-2.04,1.81-3.58,4.53-4.63,8.15H985.21z"/>
		<path d="M1041.88,338.98h-7.22l-19.87-17.83v17.83h-5.18v-54.99h5.18v31.29l18.32-15.97h7.5l-21.74,18.93L1041.88,338.98z"/>
		<path d="M1094.97,331.03c-3.99,5.98-10.17,8.97-18.56,8.97c-6.05,0-11.17-1.9-15.35-5.69c-4.3-3.91-6.45-8.86-6.45-14.84
			c0-3.87,0.97-7.44,2.9-10.72c1.93-3.28,4.59-5.85,7.97-7.69c3.38-1.85,7.16-2.77,11.34-2.77c5.39,0,10,1.45,13.82,4.34
			c1.7,1.29,3.15,2.93,4.34,4.92l-4.04,2.51c-3.5-4.62-8.27-6.93-14.32-6.93c-4.69,0-8.65,1.48-11.88,4.44
			c-3.3,3.06-4.96,6.9-4.96,11.53c0,2.91,0.74,5.63,2.22,8.17c1.48,2.54,3.5,4.51,6.05,5.91c2.55,1.41,5.41,2.11,8.6,2.11
			c5.83,0,10.59-2.31,14.28-6.93L1094.97,331.03z"/>
		<path d="M1120.09,287.18c0,1.16-0.41,2.15-1.23,2.96c-0.82,0.81-1.81,1.22-2.98,1.22c-1.14,0-2.12-0.41-2.94-1.23
			s-1.23-1.8-1.23-2.94c0-1.16,0.4-2.15,1.22-2.98c0.81-0.82,1.8-1.23,2.96-1.23c1.16,0,2.15,0.41,2.98,1.23
			C1119.68,285.03,1120.09,286.02,1120.09,287.18z M1118.53,338.98h-5.18V299.3h5.18V338.98z"/>
	</g>
	<g>
		<g>
			<path d="M183.77,107.49c9.47,5,16.79,12.11,21.97,21.35c5.17,9.24,7.76,19.96,7.76,32.16s-2.59,22.92-7.76,32.16
				c-5.17,9.24-12.49,16.36-21.97,21.35c-9.47,5-20.48,7.49-33.04,7.49H100.7V100h50.03C163.29,100,174.3,102.5,183.77,107.49z
				 M175.49,187.32c6.28-6.51,9.41-15.28,9.41-26.32c0-7.32-1.42-13.68-4.27-19.09c-2.85-5.4-6.86-9.59-12.03-12.55
				c-5.17-2.96-11.13-4.44-17.87-4.44h-21.44v72.16h21.44C160.96,197.08,169.22,193.83,175.49,187.32z"/>
			<path d="M238.39,218.26c-7.15-3.77-12.64-9.03-16.48-15.77c-3.84-6.74-5.75-14.58-5.75-23.53c0-8.95,1.92-16.79,5.75-23.53
				c3.84-6.74,9.33-12,16.48-15.77c7.15-3.78,15.49-5.66,25.02-5.66c9.53,0,17.9,1.89,25.11,5.66c7.21,3.78,12.73,9.04,16.56,15.77
				c3.83,6.74,5.75,14.58,5.75,23.53c0,8.95-1.92,16.79-5.75,23.53c-3.84,6.74-9.36,12-16.56,15.77
				c-7.21,3.78-15.58,5.66-25.11,5.66C253.88,223.92,245.54,222.03,238.39,218.26z M278.06,194.64c3.72-4.07,5.58-9.29,5.58-15.69
				c0-6.39-1.86-11.62-5.58-15.69c-3.72-4.07-8.6-6.1-14.64-6.1c-5.93,0-10.75,2.03-14.47,6.1c-3.72,4.07-5.58,9.3-5.58,15.69
				c0,6.39,1.86,11.62,5.58,15.69c3.72,4.07,8.54,6.1,14.47,6.1C269.45,200.74,274.33,198.71,278.06,194.64z"/>
			<g>
				<polygon points="455.8,134.39 455.8,222.01 428.72,222.01 428.72,182.18 398.45,222.01 371.37,222.01 371.37,182.18 
					341.1,222.01 314.02,222.01 314.02,134.39 341.1,134.39 341.1,174.22 371.37,134.39 398.45,134.39 398.45,174.22 428.72,134.39 
									"/>
			</g>
			<path d="M555.76,135.92v86.1h-23.71l-1.74-10.28c-7.32,8.02-16.85,12.03-28.59,12.03c-8.02,0-15.14-1.89-21.36-5.66
				c-6.22-3.78-11.07-9.06-14.56-15.86c-3.49-6.8-5.23-14.55-5.23-23.27s1.74-16.47,5.23-23.27c3.49-6.8,8.34-12.08,14.56-15.86
				c6.22-3.77,13.34-5.66,21.36-5.66c5.81,0,11.16,1.02,16.04,3.05c4.88,2.03,9.06,4.97,12.55,8.8l1.74-10.11H555.76z
				 M522.99,194.74c3.83-4.01,5.75-9.26,5.75-15.77c0-6.51-1.92-11.76-5.75-15.77c-3.84-4.01-8.78-6.01-14.82-6.01
				c-6.05,0-10.96,2.03-14.73,6.1c-3.78,4.07-5.67,9.3-5.67,15.69c0,6.39,1.89,11.62,5.67,15.69c3.77,4.07,8.69,6.1,14.73,6.1
				C514.21,200.76,519.15,198.75,522.99,194.74z"/>
			<path d="M639.11,144.46c6.33,6.97,9.5,16.62,9.5,28.93v48.63h-27.37v-47.06c0-5.58-1.39-9.93-4.18-13.07
				c-2.79-3.14-6.63-4.71-11.51-4.71c-5.35,0-9.65,1.8-12.9,5.4c-3.26,3.6-4.88,8.31-4.88,14.12v45.32H560.4v-86.1h23.71l1.74,10.11
				c3.37-3.83,7.41-6.8,12.12-8.89c4.71-2.09,9.91-3.14,15.6-3.14C624.27,134.01,632.78,137.49,639.11,144.46z"/>
			<path d="M674.34,218.27c-7.15-3.77-12.64-9.03-16.47-15.77c-3.84-6.74-5.75-14.58-5.75-23.53c0-8.95,1.92-16.79,5.75-23.53
				c3.83-6.74,9.33-12,16.47-15.77c7.15-3.78,15.49-5.66,25.02-5.66c9.53,0,17.9,1.89,25.1,5.66c7.21,3.78,12.73,9.04,16.56,15.77
				c3.84,6.74,5.75,14.58,5.75,23.53c0,8.95-1.92,16.79-5.75,23.53c-3.83,6.74-9.36,12-16.56,15.77c-7.21,3.78-15.57,5.66-25.1,5.66
				C689.82,223.94,681.48,222.05,674.34,218.27z M714,194.66c3.72-4.07,5.58-9.29,5.58-15.69c0-6.39-1.86-11.62-5.58-15.69
				c-3.72-4.07-8.6-6.1-14.64-6.1c-5.93,0-10.75,2.03-14.47,6.1c-3.72,4.07-5.58,9.3-5.58,15.69c0,6.39,1.86,11.62,5.58,15.69
				c3.72,4.07,8.54,6.1,14.47,6.1C705.4,200.76,710.28,198.73,714,194.66z"/>
			<path d="M854.54,135.92h28.94l-28.77,86.1h-25.98l-7.15-21.09l-9.94-27.71l-9.94,27.71l-7.15,21.09h-26.15l-28.77-86.1h28.94
				l7.67,26.49l6.62,26.49l19.7-52.99h18.13l19.7,53.16l6.62-26.67L854.54,135.92z"/>
			<path d="M877.61,212.79l10.46-18.82c4.18,2.56,9.04,4.53,14.56,5.93c5.52,1.39,11.01,2.09,16.47,2.09
				c7.55,0,11.33-2.03,11.33-6.1c0-2.09-1.05-3.66-3.14-4.71c-2.09-1.05-5.58-1.74-10.46-2.09c-10.92-0.58-19.61-3.31-26.06-8.19
				c-6.45-4.88-9.68-11.27-9.68-19.17c0-8.6,3.49-15.42,10.46-20.48c6.97-5.05,16.39-7.58,28.24-7.58c6.74,0,13.16,0.81,19.26,2.44
				s11.36,3.89,15.78,6.8l-10.63,18.3c-6.51-3.72-14.24-5.58-23.19-5.58c-8.83,0-13.25,2.09-13.25,6.28c0,1.74,0.9,3.08,2.7,4.01
				c1.8,0.93,4.85,1.63,9.15,2.09c12.32,0.93,21.7,3.72,28.15,8.37c6.45,4.65,9.68,11.16,9.68,19.52c0,8.83-3.55,15.77-10.63,20.83
				c-7.09,5.05-16.91,7.58-29.46,7.58C902.13,224.29,888.88,220.45,877.61,212.79z"/>
			<path d="M982.03,218.45c-7.15-3.66-12.67-8.86-16.56-15.6c-3.9-6.74-5.84-14.64-5.84-23.7c0-8.95,1.97-16.82,5.93-23.62
				c3.95-6.8,9.47-12.08,16.56-15.86c7.09-3.78,15.28-5.66,24.58-5.66c6.39,0,12.49,1.13,18.31,3.4
				c5.81,2.27,10.98,5.61,15.52,10.02l-15.17,16.56c-4.88-4.53-10.63-6.8-17.26-6.8c-6.28,0-11.39,2.01-15.34,6.01
				c-3.95,4.01-5.93,9.27-5.93,15.77c0,6.51,1.94,11.76,5.84,15.77c3.89,4.01,9.04,6.01,15.43,6.01c7.09,0,13.13-2.5,18.13-7.49
				l15.52,16.38c-9.65,9.53-21.16,14.29-34.52,14.29C997.57,223.94,989.18,222.11,982.03,218.45z"/>
			<path d="M1109.66,135.92h29.64l-53.7,123.4h-29.11l16.74-38.52l-33.47-84.88h29.46l9.94,27.19l9.41,28.06l10.11-28.06
				L1109.66,135.92z"/>
		</g>
	</g>
	<rect x="100.7" y="316.57" width="544.35" height="4.98"/>
</g>
</svg>
