<?xml version="1.0" encoding="utf-8"?>
<!-- Generator: Adobe Illustrator 28.2.0, SVG Export Plug-In . SVG Version: 6.00 Build 0)  -->
<svg version="1.1" id="Warstwa_1" xmlns="http://www.w3.org/2000/svg" xmlns:xlink="http://www.w3.org/1999/xlink" x="0px" y="0px"
	 viewBox="0 0 1000 1000" style="enable-background:new 0 0 1000 1000;" xml:space="preserve">
<style type="text/css">
	.st0{fill:#FFFFFF;}
</style>
<g>
	<g>
		<g>
			<path class="st0" d="M372.35,187.31l-18.94,8.44l-0.22,82.2l21.05-9.37l-0.38-13.63l28.46-12.67l9.87,9.39l21.22-9.45
				L372.35,187.31z M373.37,234.26l-0.49-20.09l14.49,13.85L373.37,234.26z"/>
		</g>
		<g>
			<path class="st0" d="M601.03,193.69c-2.03-6.49-5.74-12.03-11.04-16.47c-5.25-4.39-11.83-7.45-19.57-9.09
				c-7.74-1.63-15-1.5-21.57,0.4c-6.65,1.91-12.28,5.48-16.76,10.6c-4.44,5.07-7.51,11.48-9.11,19.05
				c-1.59,7.56-1.38,14.66,0.63,21.1c1.01,3.25,2.44,6.25,4.29,9.01c1.84,2.75,4.1,5.25,6.75,7.47c5.24,4.39,11.82,7.44,19.56,9.08
				c3.59,0.76,7.07,1.14,10.42,1.14c3.9,0,7.63-0.51,11.16-1.53c6.64-1.92,12.28-5.48,16.75-10.6c4.45-5.08,7.51-11.49,9.11-19.05
				C603.25,207.23,603.04,200.13,601.03,193.69z M580.71,210.37c-0.82,3.88-2.32,7.15-4.46,9.72c-2.13,2.55-4.67,4.26-7.78,5.25
				c-3.11,0.99-6.54,1.1-10.2,0.32c-3.66-0.77-6.74-2.25-9.15-4.4c-2.42-2.16-4.03-4.76-4.95-7.95c-0.92-3.21-0.97-6.81-0.15-10.69
				c0.82-3.88,2.32-7.15,4.46-9.72c2.13-2.54,4.66-4.27,7.74-5.26c1.73-0.56,3.57-0.84,5.5-0.84c1.5,0,3.05,0.17,4.65,0.51
				c3.66,0.77,6.75,2.26,9.2,4.42c2.44,2.16,4.07,4.76,4.99,7.95C581.48,202.9,581.53,206.49,580.71,210.37z"/>
		</g>
	</g>
	<circle class="st0" cx="204" cy="546.56" r="25"/>
	<circle class="st0" cx="796" cy="546.56" r="25"/>
	<path class="st0" d="M854.74,350.14c-19.39-45.84-47.15-87.02-82.51-122.37c-35.35-35.36-76.52-63.11-122.37-82.51
		C602.39,125.19,551.97,115,500,115s-102.39,10.19-149.86,30.26c-45.85,19.4-87.02,47.15-122.38,82.51
		c-35.35,35.35-63.11,76.53-82.5,122.37C125.18,397.61,115,448.03,115,500c0,51.98,10.18,102.4,30.26,149.87
		c19.39,45.84,47.15,87.02,82.5,122.37c35.36,35.36,76.53,63.11,122.38,82.51C397.61,874.82,448.03,885,500,885
		s102.39-10.18,149.86-30.25c45.85-19.4,87.02-47.15,122.37-82.51c35.36-35.35,63.12-76.53,82.51-122.37
		C874.82,602.4,885,551.98,885,500C885,448.03,874.82,397.61,854.74,350.14z M500,865c-201.26,0-365-163.73-365-365
		c0-201.26,163.74-365,365-365s365,163.74,365,365C865,701.27,701.26,865,500,865z"/>
	<path class="st0" d="M265.77,619.09l-81.88,7.3l11.26,20.1l13.53-1.62l15.23,27.18l-8.46,10.69L226.8,703l49.1-65.81L265.77,619.09
		z M249.21,640.17l-12.48,15.69l-7.48-13.37L249.21,640.17z"/>
	<path class="st0" d="M328.11,703.63c-1.46-4.43-4.17-8.61-8.05-12.42l-26.12-25.64l-52.54,53.52l15.27,14.99l16.18-16.48l4.12,4.04
		l-3.48,28.95l18.53,18.19l3.21-33.14c4.12,1.51,8.24,1.93,12.31,1.25c5.15-0.86,9.84-3.41,13.93-7.58
		c3.57-3.63,5.96-7.72,7.11-12.14C329.75,712.69,329.59,708.14,328.11,703.63z M308.57,709.28c0.1,1.85-0.67,3.59-2.37,5.32
		c-1.69,1.73-3.39,2.51-5.2,2.47c-1.86-0.07-3.85-1.13-5.9-3.15l-9.57-9.38l10.3-10.49l9.56,9.38
		C307.4,705.4,308.47,707.37,308.57,709.28z"/>
	<path class="st0" d="M398.46,757.42l-18.51,5.29l-0.72-2.33c-1.66-5.31-4.86-9.23-9.8-11.97c-3.22-1.79-6.48-2.7-9.7-2.7h-0.15
		c-3.26,0.03-6.19,0.92-8.97,2.73c-2.81,1.82-5.19,4.48-7.08,7.89c-1.9,3.41-2.89,6.83-2.96,10.17c-0.06,3.32,0.73,6.28,2.43,9.07
		c1.7,2.78,4.22,5.11,7.49,6.93c2.63,1.46,5.45,2.4,8.39,2.8c2.91,0.39,5.77,0.19,8.5-0.59l2.54-0.72l4.32,18.93l-2.33,0.63
		c-3.66,0.97-7.29,1.46-10.87,1.46c-6.91,0-13.65-1.81-20.15-5.42c-6.92-3.84-12.3-8.72-16.01-14.5c-1.87-2.92-3.28-5.97-4.23-9.15
		c-0.95-3.18-1.43-6.47-1.44-9.87c-0.03-6.75,1.83-13.54,5.52-20.18c3.7-6.65,8.52-11.82,14.34-15.36
		c5.85-3.56,12.31-5.29,19.18-5.21c6.82,0.11,13.66,2.05,20.35,5.76c9.58,5.32,16.02,13.37,19.14,23.92L398.46,757.42z"/>
	<polygon class="st0" points="473.93,763.4 457.19,836.5 436.43,831.75 442.7,804.36 418.62,798.85 412.35,826.24 391.49,821.46 
		408.23,748.35 429.09,753.13 423.04,779.54 447.12,785.06 453.17,758.64 	"/>
	
		<rect x="459.36" y="789.29" transform="matrix(0.0163 -0.9999 0.9999 0.0163 -311.1077 1283.7688)" class="st0" width="75" height="21.4"/>
	<polygon class="st0" points="560.87,775.43 570.75,830.24 549.69,834.04 539.81,779.22 518.85,783 515.42,764.01 578.5,752.64 
		581.93,771.63 	"/>
	<polygon class="st0" points="668.44,794.2 614.3,818.9 583.17,750.67 636.3,726.43 644.06,743.44 609.95,759 613.77,767.38 
		646.06,752.64 653.62,769.2 621.32,783.93 625.51,793.12 660.63,777.1 	"/>
	<polygon class="st0" points="723.93,752.86 692.69,747.81 707.71,766.15 691.23,779.65 643.7,721.63 660.18,708.13 674.78,725.95 
		675.14,695.88 695.88,678.89 694.72,727.36 745.63,735.08 	"/>
	<path class="st0" d="M776.66,696.22c-4.7,6.37-10.23,11.08-16.43,14.02c-2.43,1.15-4.92,2.01-7.45,2.59s-5.1,0.87-7.69,0.87
		c-1.48,0-2.96-0.09-4.46-0.28c-6.69-0.84-13.18-3.55-19.3-8.06c-6.12-4.52-10.63-9.96-13.39-16.19
		c-2.78-6.26-3.69-12.89-2.71-19.69c0.98-6.75,3.78-13.29,8.32-19.44c6.51-8.82,15.32-14.18,26.18-15.92l2.49-0.4l2.88,19.03
		l-2.41,0.42c-5.48,0.96-9.77,3.63-13.13,8.18c-2.22,3.01-3.54,6.18-3.93,9.42c-0.39,3.24,0.12,6.27,1.55,9.26
		c1.45,3.01,3.78,5.71,6.91,8.03c3.14,2.31,6.41,3.74,9.72,4.23c3.28,0.49,6.32,0.08,9.3-1.25c2.98-1.32,5.61-3.52,7.84-6.54
		c1.78-2.41,3.07-5.09,3.85-7.96c0.76-2.83,0.93-5.69,0.5-8.5l-0.39-2.61l19.33-1.85l0.32,2.39
		C786.02,676.96,783.36,687.14,776.66,696.22z"/>
	<polygon class="st0" points="811.11,631.46 802.16,650.9 734.04,619.5 743,600.07 	"/>
	<polygon class="st0" points="839.68,486.13 789.52,463.17 760.75,467.82 757.35,446.79 786.14,442.13 826.67,405.61 830.69,430.48 
		808.49,449.49 835.6,460.9 	"/>
	<path class="st0" d="M812.23,395.18l-0.87,2.38l-18.03-6.73l0.8-2.31c1.82-5.25,1.57-10.31-0.78-15.45
		c-1.55-3.4-3.68-6.1-6.32-8.01c-2.65-1.91-5.54-2.94-8.85-3.13c-3.35-0.2-6.83,0.52-10.38,2.14c-3.54,1.62-6.38,3.79-8.41,6.44
		c-2.02,2.63-3.14,5.48-3.43,8.73c-0.28,3.25,0.36,6.62,1.92,10.03c1.24,2.74,2.96,5.17,5.09,7.23c2.1,2.04,4.52,3.58,7.18,4.57
		l2.48,0.92l-7.77,17.81l-2.24-0.88c-10.32-4.07-17.93-11.33-22.62-21.6c-3.28-7.19-4.72-14.32-4.28-21.17
		c0.45-6.91,2.72-13.19,6.73-18.68c3.99-5.44,9.51-9.8,16.42-12.96c6.92-3.16,13.88-4.45,20.66-3.85c6.82,0.61,13.06,3.03,18.53,7.2
		c5.42,4.13,9.78,9.75,12.96,16.71C815.57,374.54,815.98,384.84,812.23,395.18z"/>
	<path class="st0" d="M773.85,314.65l-18.72,1.85l-0.2-2.53c-0.5-6.09-2.7-11.55-6.55-16.22c-2.3-2.79-4.57-4.65-6.74-5.52
		c-2.2-0.88-3.28-0.34-3.97,0.22c-0.7,0.58-1.38,1.43-1.06,3.32c0.24,1.41,1.18,4.1,4.27,8.94c5.41,8.33,8.25,15.78,8.42,22.13
		c0.18,6.69-2.51,12.38-8,16.9c-3.8,3.13-8.11,4.85-12.8,5.12c-0.43,0.02-0.86,0.03-1.29,0.03c-4.2,0-8.45-1.14-12.66-3.4
		c-4.52-2.43-8.78-6.05-12.66-10.75c-3.79-4.61-6.79-9.7-8.91-15.11c-1.06-2.73-1.88-5.45-2.42-8.15c-0.55-2.7-0.84-5.37-0.86-8
		l-0.01-2.35l19.54-1.34l0.06,2.61c0.17,7.27,2.73,13.95,7.59,19.86c2.33,2.84,4.63,4.7,6.83,5.52c2.3,0.87,3.48,0.25,4.25-0.39
		c0.7-0.57,1.45-1.5,1.06-3.62c-0.4-2.21-1.88-5.28-4.41-9.13c-5.54-8.51-8.34-15.61-8.55-21.72c-0.22-6.37,2.46-11.9,7.96-16.43
		c3.7-3.04,7.89-4.71,12.46-4.96c4.49-0.25,9.07,0.84,13.6,3.25c4.41,2.35,8.58,5.87,12.37,10.49c3.24,3.92,5.87,8.28,7.82,12.96
		c1.96,4.69,3.11,9.41,3.41,14L773.85,314.65z"/>
	<polygon class="st0" points="728.06,244.57 666,294.19 649.84,284.07 659,245.38 645.65,256.42 628.22,270.53 612.32,260.57 
		629.79,183.02 649.51,195.36 641.69,225.46 638.18,237.65 672.19,209.57 685.24,217.74 674.91,261.31 684.92,252.56 708.34,232.21 
			"/>
	<polygon class="st0" points="491.24,237.21 460.08,201.83 461.19,212.89 463.62,239.7 442.4,241.62 435.65,166.93 454.05,165.26 
		485.22,200.81 484.12,189.98 481.66,162.77 502.88,160.85 509.63,235.54 	"/>
	<polygon class="st0" points="331.42,297.82 304.05,269.62 306.33,296.25 302.33,300.13 275.54,297.11 303,325.4 287.71,340.23 
		235.48,286.41 248.69,273.6 284.69,278.1 281.27,241.98 294.47,229.16 346.7,282.98 	"/>
	<path class="st0" d="M267.61,340.75c-3.72-5.63-9.09-10.28-15.96-13.83c-6.87-3.54-13.77-5.23-20.51-4.99
		c-6.8,0.23-13.13,2.34-18.81,6.28c-5.63,3.89-10.32,9.43-13.95,16.46c-3.62,7.03-5.42,14.07-5.33,20.91
		c0.09,6.91,2.03,13.29,5.78,18.97c3.72,5.63,9.09,10.28,15.96,13.82c6.45,3.33,12.94,5.02,19.29,5.02c0.41,0,0.82-0.01,1.23-0.02
		c3.39-0.12,6.67-0.71,9.82-1.76c3.14-1.05,6.14-2.56,8.98-4.53c5.63-3.89,10.32-9.43,13.95-16.46c3.63-7.03,5.42-14.06,5.33-20.91
		C273.31,352.8,271.36,346.42,267.61,340.75z M224.65,379.27c-3.53-1.82-6.28-4.14-8.19-6.88c-1.89-2.73-2.88-5.63-3.03-8.86
		c-0.14-3.23,0.66-6.55,2.37-9.87c1.72-3.32,3.97-5.92,6.7-7.7c2.74-1.78,5.67-2.67,8.99-2.71h0.19c3.29,0,6.71,0.91,10.16,2.69
		c3.53,1.82,6.28,4.13,8.19,6.88c0.95,1.36,1.66,2.77,2.16,4.24c0.5,1.48,0.77,3.02,0.84,4.65c0.13,3.26-0.67,6.6-2.39,9.92
		c-1.71,3.33-3.96,5.9-6.67,7.65c-2.72,1.76-5.65,2.64-8.97,2.67C231.67,382.01,228.17,381.08,224.65,379.27z"/>
	<path class="st0" d="M240.34,434.48c-2.01-6.29-5.59-11.58-10.64-15.73c-5.01-4.11-11.24-6.85-18.53-8.15
		c-7.28-1.31-14.08-0.89-20.2,1.23c-3.09,1.07-5.93,2.54-8.51,4.38c-2.58,1.85-4.89,4.08-6.92,6.69c-4.01,5.15-6.72,11.54-8.06,19
		l-5.49,30.71l73.83,13.2l5.49-30.72C242.65,447.63,242.32,440.7,240.34,434.48z M207.41,431.66c2.81,0.51,5.23,1.33,7.27,2.49
		c2.05,1.15,3.72,2.64,5.06,4.49c2.65,3.66,3.49,7.93,2.57,13.06l-1.72,9.64l-35.83-6.4l1.72-9.65c0.6-3.35,1.87-6.2,3.77-8.47
		c1.9-2.27,4.24-3.83,7.15-4.75C200.33,431.14,203.7,431,207.41,431.66z"/>
	<polygon class="st0" points="675,391.86 675,608.15 608.14,608.15 608.14,509.84 533.43,608.15 466.57,608.15 466.57,509.84 
		391.85,608.15 325,608.15 325,391.86 391.85,391.86 391.85,490.17 466.57,391.86 533.43,391.86 533.43,490.17 608.14,391.86 	"/>
</g>
</svg>
